inDegrees=yes
name=ik_XSDot_20240320_161737_orientations
DataType=double
version=3
OpenSimVersion=4.5-2024-01-10-34fd6af
endheader
time	pelvis_tilt	pelvis_list	pelvis_rotation	pelvis_tx	pelvis_ty	pelvis_tz	hip_flexion_r	hip_adduction_r	hip_rotation_r	knee_angle_r	knee_angle_r_beta	ankle_angle_r	subtalar_angle_r	mtp_angle_r	hip_flexion_l	hip_adduction_l	hip_rotation_l	knee_angle_l	knee_angle_l_beta	ankle_angle_l	subtalar_angle_l	mtp_angle_l	lumbar_extension	lumbar_bending	lumbar_rotation	arm_flex_r	arm_add_r	arm_rot_r	elbow_flex_r	pro_sup_r	wrist_flex_r	wrist_dev_r	arm_flex_l	arm_add_l	arm_rot_l	elbow_flex_l	pro_sup_l	wrist_flex_l	wrist_dev_l
0	0.02242717900250309	-0.0021245253415538	170.5958213653474	0	0.9399999999999999	0	0.2932796075904722	-0.006780178859726231	-0.08027639368048621	0.5187660452661759	0.009054175537444711	-2.042739634961799	0	0	0.2889513319049237	-0.01019971261288502	-0.07585789116827346	0.5130006394779498	0.008953550223726629	-2.042739634961799	0	0	0	0	0	0	-1.343335521874241	0	18.86549287727851	18.74107488061794	0	0	0	-1.343335521874241	0	18.86549287727851	18.74107488061794	0	0
0.01	0.01531406458189385	-0.00174415946714356	170.6013008287751	0	0.9399999999999999	0	0.2905046162303254	-0.004707868851276283	-0.09544537405200684	0.5401404738108634	0.00942722969128177	-2.043975920008571	0	0	0.2982446307123598	-0.008386143565650848	-0.08410144127596467	0.5414047628578139	0.009449295697847956	-2.043975920008571	0	0	0	0	0	0	-1.34406549596441	0	18.87692725464464	18.75079708766981	0	0	0	-1.34406549596441	0	18.87692725464464	18.75079708766981	0	0
0.02	0.02831788427860624	-0.0009713649857428469	170.6241292442554	0	0.9399999999999999	0	0.2868048029149037	-0.003146936349279641	-0.1193109539428019	0.5038920441936813	0.008794575245784513	-2.050472116757089	0	0	0.2901407422452254	-0.01380069108970314	-0.04055179534390678	0.5156327610363517	0.008999489411233465	-2.050472116757089	0	0	0	0	0	0	-1.347832791481875	0	18.93701743827561	18.80194263815771	0	0	0	-1.347832791481875	0	18.93701743827561	18.80194263815771	0	0
0.03	0.01527900121236186	0.00178614845196661	170.6140367794411	0	0.9399999999999999	0	0.2815515163767163	0.003315964717902933	-0.1273452679519778	0.5404814352780116	0.009433180591505937	-2.051649032040521	0	0	0.3014361300324917	-0.006635649137251163	-0.05504007277915873	0.5446741383407345	0.009506357064508902	-2.051649032040521	0	0	0	0	0	0	-1.3485132576554	0	18.94790458799303	18.81122762595069	0	0	0	-1.3485132576554	0	18.94790458799303	18.81122762595069	0	0
0.04	0.01350095665037033	0.01312826225361763	170.6306051564987	0	0.9399999999999999	0	0.2660548938925865	0.01825918950104146	-0.1378447520845687	0.5144691858525016	0.008979181193180783	-2.062044832847301	0	0	0.2799422987530785	-0.02428970037209489	-0.01861402399006195	0.5153385320810376	0.008994354147208531	-2.062044832847301	0	0	0	0	0	0	-1.354538607125321	0	19.04394587238825	18.89301784686279	0	0	0	-1.354538607125321	0	19.04394587238825	18.89301784686279	0	0
0.05	0.01014321995759942	0.01705920829568032	170.6271563187695	0	0.9399999999999999	0	0.2712878372512428	0.01553371422124921	-0.1477376398812139	0.5416486749875918	0.009453552767598133	-2.063278022071778	0	0	0.2911223632627222	-0.02484985812619264	-0.03117000688939555	0.5423632636853236	0.009466024693171092	-2.063278022071778	0	0	0	0	0	0	-1.355267795302579	0	19.05531798801316	18.90268584183103	0	0	0	-1.355267795302579	0	19.05531798801316	18.90268584183103	0	0
0.06	0.009647308252690737	0.02945635855585517	170.6294235837003	0	0.9399999999999999	0	0.2540234008352347	0.02867882588236239	-0.1455754928985278	0.5200648533177625	0.009076844014296311	-5.019472997557373	0	0	0.2749939919602208	-0.02748229229429569	-0.0193058533543048	0.5116268355335356	0.008929572821619715	-5.019472997557373	0	0	0	0	0	0	-12.76894194580845	0	74.66967861309979	45.31978033635316	0	0	0	-12.76894194580845	0	74.66967861309979	45.31978033635316	0	0
0.07000000000000001	0.01422180644742096	0.03217936435235035	170.6244578468456	0	0.9399999999999999	0	0.2632583290268991	0.03059383865838423	-0.1509586174020205	0.5412582822880009	0.009446739129614521	-5.019463658622088	0	0	0.2905551558234233	-0.02655612434881345	-0.02561540531016103	0.5409031562171684	0.009440541010418826	-5.019463658622088	0	0	0	0	0	0	-12.76908222786445	0	74.66971780615867	45.3196829166191	0	0	0	-12.76908222786445	0	74.66971780615867	45.3196829166191	0	0
0.08	0.02978294787938134	0.03241649045034781	170.6277349099014	0	0.9399999999999999	0	0.2680122496547671	0.02706520954783988	-0.1562634496614833	0.5235511935564133	0.009137692130305533	-5.019445381889181	0	0	0.2993101767389833	-0.01651644240493123	-0.01138554426453459	0.5276981133003461	0.00921006953365312	-5.019445381889181	0	0	0	0	0	0	-12.76933882076948	0	74.66979075635206	45.31949567073224	0	0	0	-12.76933882076948	0	74.66979075635206	45.31949567073224	0	0
0.09	0.02422834978435317	0.03005375451370353	170.6409399533984	0	0.9399999999999999	0	0.2646663518380099	0.02824841491754103	-0.1703660018833709	0.5408647054233462	0.009439869917466622	-5.019436022424758	0	0	0.3088317476759648	-0.00899800373885141	-0.01405142418343287	0.5439668474768511	0.009494012510164861	-5.019436022424758	0	0	0	0	0	0	-12.76947237357233	0	74.66982854914326	45.31939939024928	0	0	0	-12.76947237357233	0	74.66982854914326	45.31939939024928	0	0
0.09999999999999999	0.03891529727244983	0.02596052982683995	170.6428864162239	0	0.9399999999999999	0	0.2605015333818773	0.02340955964054341	-0.169720498188795	0.5135586875105954	0.008963289999280571	-5.019403953801279	0	0	0.3108738112338976	0.01388200098024569	0.004530884136343259	0.516701232679402	0.009018137759368888	-5.019403953801279	0	0	0	0	0	0	-12.76991498434231	0	74.66995493707594	45.31907230141598	0	0	0	-12.76991498434231	0	74.66995493707594	45.31907230141598	0	0
0.11	0.02441429433087138	0.03109443273174248	170.6349372787478	0	0.9399999999999999	0	0.2657692691680348	0.01112599063052608	-0.176400421387501	0.5464174465681343	0.009536783532954134	-5.019398026990988	0	0	0.3111532319907606	-0.003476993264083635	-0.009629294060145484	0.548017513597353	0.009564709970866603	-5.019398026990988	0	0	0	0	0	0	-12.76999855945457	0	74.66997861990862	45.31901162133596	0	0	0	-12.76999855945457	0	74.66997861990862	45.31901162133596	0	0
0.12	0.03213060443890108	0.04240851102899494	170.6295573928133	0	0.9399999999999999	0	0.2575497514210646	0.03277231132465468	-0.1615811669827632	0.5218701234035207	0.009108351921180553	-5.019370230403394	0	0	0.3076360174959102	-0.01939870442610081	-0.01238450803649151	0.5253572102094926	0.009169213067247614	-5.019370230403394	0	0	0	0	0	0	-12.77039198617908	0	74.67009032538397	45.31872596916632	0	0	0	-12.77039198617908	0	74.67009032538397	45.31872596916632	0	0
0.13	0.02602045898637912	0.04715024515643464	170.6402939053507	0	0.9399999999999999	0	0.25909042737744	0.03934898227960127	-0.1784690311009395	0.5459395660495449	0.00952844294447361	-5.019363233179654	0	0	0.3108877673101768	-0.01541445920948772	-0.01825310978454747	0.5470417292768075	0.009547679321683749	-5.019363233179654	0	0	0	0	0	0	-12.77049329380437	0	74.67011888399198	45.31865370887381	0	0	0	-12.77049329380437	0	74.67011888399198	45.31865370887381	0	0
0.14	0.03571091702992087	0.057728250985039	170.6522727459205	0	0.9399999999999999	0	0.2582905654722267	0.0507696098979962	-0.1907540438829322	0.5245409756352172	0.009154967086457895	-5.01933328994923	0	0	0.3097851032273722	-0.02079317832547977	0.01070738711529096	0.5246227223531359	0.009156393835838274	-5.01933328994923	0	0	0	0	0	0	-12.77090735812591	0	74.67023709468518	45.31834803209884	0	0	0	-12.77090735812591	0	74.67023709468518	45.31834803209884	0	0
